<?xml version="1.0" standalone="no"?>
<!DOCTYPE svg PUBLIC "-//W3C//DTD SVG 20010904//EN"
 "http://www.w3.org/TR/2001/REC-SVG-20010904/DTD/svg10.dtd">
<svg version="1.0" xmlns="http://www.w3.org/2000/svg"
 width="700.000000pt" height="700.000000pt" viewBox="0 0 700.000000 700.000000"
 preserveAspectRatio="xMidYMid meet">
<metadata>
Created by potrace 1.14, written by Peter Selinger 2001-2017
</metadata>
<g transform="translate(0.000000,700.000000) scale(0.100000,-0.100000)"
fill="#000000" stroke="none">
<path d="M3278 6996 c-1 -2 -39 -6 -83 -10 -133 -10 -220 -23 -435 -65 -154
-31 -472 -130 -597 -187 -28 -13 -54 -24 -58 -24 -13 0 -287 -140 -380 -194
-88 -52 -251 -158 -295 -193 -8 -6 -51 -40 -95 -74 -520 -404 -929 -982 -1147
-1619 -46 -136 -100 -339 -124 -465 -9 -49 -17 -97 -19 -105 -4 -20 -18 -120
-21 -145 -26 -237 -26 -667 1 -826 2 -13 6 -46 9 -74 9 -78 22 -152 51 -285
21 -96 91 -339 114 -395 5 -11 25 -65 46 -120 63 -166 249 -531 312 -610 4 -6
34 -49 65 -95 170 -255 433 -535 708 -755 92 -74 370 -265 386 -265 4 0 15 -6
23 -14 26 -22 298 -158 411 -205 267 -111 589 -200 859 -237 25 -3 57 -8 71
-10 163 -25 682 -25 842 1 13 2 46 7 73 10 71 10 87 13 115 18 14 3 43 8 65
12 22 4 76 16 120 27 44 10 87 21 96 23 25 5 157 45 219 65 178 57 568 235
660 300 15 11 33 20 39 20 6 0 11 5 11 10 0 6 5 10 10 10 15 0 220 141 330
227 152 118 324 280 450 422 36 41 70 79 76 85 6 6 48 61 94 121 150 197 277
405 383 628 26 53 47 99 47 102 0 2 11 28 24 57 57 127 151 421 182 573 62
298 79 463 79 760 0 245 -13 423 -39 562 -2 10 -11 59 -21 108 -100 537 -352
1085 -694 1510 -148 184 -312 354 -461 479 -47 39 -87 74 -90 77 -3 3 -48 37
-100 76 -250 184 -535 343 -800 446 -107 42 -318 113 -360 122 -8 2 -42 10
-75 19 -71 18 -196 45 -245 52 -19 3 -60 9 -91 15 -31 5 -81 12 -110 15 -30 3
-67 8 -84 10 -33 6 -541 14 -547 10z m645 -1155 c4 0 7 -512 7 -1136 l0 -1135
409 -2 409 -3 -390 -395 c-639 -648 -851 -860 -859 -860 -7 0 -173 166 -862
865 l-385 390 409 3 409 2 0 1134 c0 766 3 1135 10 1138 9 3 824 2 843 -1z
m-2180 -2921 c-254 -246 -263 -490 -25 -728 159 -158 510 -328 820 -397 9 -2
49 -11 87 -20 80 -18 209 -41 275 -50 25 -3 56 -8 70 -10 183 -32 751 -38 970
-10 14 1 46 5 70 9 25 3 68 8 95 11 99 13 343 65 465 100 434 125 752 332 847
553 20 45 20 44 31 109 25 147 -44 301 -196 436 -29 26 -50 47 -46 47 24 0
251 -140 329 -203 53 -43 185 -177 185 -189 0 -4 6 -13 14 -21 8 -7 28 -41 45
-76 98 -194 84 -378 -44 -570 -42 -64 -139 -166 -200 -213 -16 -12 -36 -28
-43 -35 -28 -27 -197 -125 -304 -177 -157 -76 -481 -188 -608 -210 -14 -2 -43
-9 -65 -15 -22 -5 -105 -21 -185 -35 -187 -32 -202 -34 -285 -41 -38 -4 -83
-8 -98 -10 -223 -27 -772 -22 -982 9 -16 3 -57 8 -90 11 -238 25 -563 99 -798
182 -868 305 -1165 852 -706 1303 71 70 226 190 245 190 2 0 21 11 42 24 43
28 125 75 132 76 2 0 -19 -22 -47 -50z"/>
</g>
</svg>
