<?xml version="1.0" encoding="UTF-8" standalone="no"?>
<!-- Created with Inkscape (http://www.inkscape.org/) -->

<svg
   xmlns:dc="http://purl.org/dc/elements/1.1/"
   xmlns:cc="http://creativecommons.org/ns#"
   xmlns:rdf="http://www.w3.org/1999/02/22-rdf-syntax-ns#"
   xmlns:svg="http://www.w3.org/2000/svg"
   xmlns="http://www.w3.org/2000/svg"
   xmlns:sodipodi="http://sodipodi.sourceforge.net/DTD/sodipodi-0.dtd"
   xmlns:inkscape="http://www.inkscape.org/namespaces/inkscape"
   id="svg4136"
   version="1.1"
   inkscape:version="0.91 r13725"
   width="0.34838709in"
   height="0.34838709in"
   viewBox="0 0 31.35484 31.35484"
   sodipodi:docname="VSFH_monochrome.svg">
  <metadata
     id="metadata4142">
    <rdf:RDF>
      <cc:Work
         rdf:about="">
        <dc:format>image/svg+xml</dc:format>
        <dc:type
           rdf:resource="http://purl.org/dc/dcmitype/StillImage" />
        <dc:title></dc:title>
      </cc:Work>
    </rdf:RDF>
  </metadata>
  <defs
     id="defs4140" />
  <sodipodi:namedview
     pagecolor="#ffffff"
     bordercolor="#666666"
     borderopacity="1"
     objecttolerance="10"
     gridtolerance="10"
     guidetolerance="10"
     inkscape:pageopacity="0"
     inkscape:pageshadow="2"
     inkscape:window-width="3840"
     inkscape:window-height="1577"
     id="namedview4138"
     showgrid="false"
     inkscape:zoom="29.901713"
     inkscape:cx="7.9740639"
     inkscape:cy="13.689772"
     inkscape:window-x="-8"
     inkscape:window-y="-8"
     inkscape:window-maximized="1"
     inkscape:current-layer="layer2"
     units="in"
     fit-margin-top="0"
     fit-margin-left="0"
     fit-margin-right="0"
     fit-margin-bottom="0" />
  <g
     inkscape:groupmode="layer"
     id="layer2"
     inkscape:label="lower"
     style="display:inline"
     transform="translate(-0.52258099,-0.52258154)" />
  <g
     inkscape:groupmode="layer"
     id="layer1"
     inkscape:label="circle"
     style="display:inline"
     transform="translate(-0.52258099,-968.1225)">
    <path
       style="fill:#c91e27;fill-opacity:1;stroke:none;stroke-width:1.04516196;stroke-linecap:round;stroke-linejoin:round;stroke-miterlimit:4;stroke-dasharray:none;stroke-opacity:1"
       d="M 16.2,0.52258154 A 15.677419,15.677438 0 0 0 0.52258099,16.20002 15.677419,15.677438 0 0 0 16.2,31.87742 15.677419,15.677438 0 0 0 31.877419,16.20002 15.677419,15.677438 0 0 0 16.2,0.52258154 Z m -1.929609,5.17355476 3.859218,0 0,10.1943127 3.677272,0 -5.607065,5.679646 -5.606697,-5.679646 3.677272,0 0,-10.1943127 z m 9.458016,12.8199157 a 10.503831,4.8241229 0 0 1 2.975464,3.36373 10.503831,4.8241229 0 0 1 -10.504055,4.824122 10.503831,4.8241229 0 0 1 -10.5036867,-4.824122 10.503831,4.8241229 0 0 1 2.9439252,-3.341559 8.7562274,3.8592982 0 0 0 -1.1964443,1.939899 8.7562274,3.8592982 0 0 0 8.7562058,3.859224 8.7562274,3.8592982 0 0 0 8.756206,-3.859224 8.7562274,3.8592982 0 0 0 -1.227615,-1.96207 z"
       id="path4146"
       inkscape:connector-curvature="0"
       transform="translate(0,967.59992)" />
  </g>
</svg>
